<svg width="1200" height="720" viewBox="0 0 1200 720" xmlns="http://www.w3.org/2000/svg">
  <defs>
    <linearGradient id="bg" x1="0" y1="0" x2="1" y2="1">
      <stop offset="0%" stop-color="#0f172a"/>
      <stop offset="100%" stop-color="#0891b2"/>
    </linearGradient>
  </defs>
  <rect width="1200" height="720" fill="url(#bg)"/>
  <rect x="140" y="110" width="920" height="500" rx="26" fill="#0b1225" opacity="0.78" stroke="#67e8f9" stroke-opacity="0.45"/>
  <polyline points="240,460 380,350 500,390 650,250 820,300 940,210" fill="none" stroke="#67e8f9" stroke-width="12" stroke-linecap="round" stroke-linejoin="round"/>
  <g fill="#22d3ee">
    <circle cx="240" cy="460" r="14"/>
    <circle cx="380" cy="350" r="14"/>
    <circle cx="500" cy="390" r="14"/>
    <circle cx="650" cy="250" r="14"/>
    <circle cx="820" cy="300" r="14"/>
    <circle cx="940" cy="210" r="14"/>
  </g>
  <rect x="260" y="510" width="120" height="16" rx="8" fill="#bae6fd" opacity="0.7"/>
  <rect x="400" y="510" width="200" height="16" rx="8" fill="#bae6fd" opacity="0.5"/>
  <rect x="620" y="510" width="160" height="16" rx="8" fill="#bae6fd" opacity="0.65"/>
  <text x="600" y="665" fill="#e0f2fe" font-size="52" text-anchor="middle" font-family="Inter, Arial, sans-serif" font-weight="700">Data Analyst</text>
</svg>
